<svg width="292" height="32" viewBox="0 0 292 32" fill="none" xmlns="http://www.w3.org/2000/svg">
<path fill-rule="evenodd" clip-rule="evenodd" d="M64.4409 22.4767V4.93909H70.4932C71.6415 4.93909 72.6221 5.04804 73.4344 5.26635C74.2472 5.48466 74.9142 5.79619 75.4357 6.20009C75.9573 6.6044 76.3392 7.09364 76.582 7.6678C76.8243 8.24196 76.9457 8.88862 76.9457 9.60818C76.9457 10.0208 76.8852 10.4147 76.7638 10.7909C76.6425 11.1666 76.4544 11.5187 76.2 11.846C75.9453 12.1737 75.6217 12.4707 75.2294 12.7375C74.8371 13.0043 74.3703 13.2309 73.8288 13.4165C76.2381 13.9583 77.4432 15.2603 77.4432 17.3221C77.4432 18.0661 77.3015 18.7533 77.0186 19.3838C76.7352 20.0147 76.3231 20.5587 75.7812 21.0152C75.2394 21.4721 74.5724 21.83 73.7804 22.0885C72.9879 22.3474 72.0823 22.4767 71.0632 22.4767H64.4409ZM67.7036 12.5312H70.3114C71.4191 12.5312 72.26 12.3295 72.8342 11.9247C73.4084 11.5208 73.6954 10.8779 73.6954 9.99637C73.6954 9.08293 73.4365 8.43172 72.9191 8.04356C72.4013 7.6554 71.5931 7.46152 70.4932 7.46152H67.7036V12.5312ZM67.7036 14.7872V19.9298H71.0148C71.6213 19.9298 72.1287 19.8569 72.5372 19.7115C72.9452 19.5657 73.2725 19.3718 73.5194 19.129C73.7659 18.8867 73.944 18.6038 74.0529 18.2802C74.1623 17.9567 74.2166 17.6133 74.2166 17.2491C74.2166 16.8693 74.1561 16.5279 74.0351 16.2247C73.9138 15.921 73.7236 15.6625 73.4651 15.4484C73.2058 15.2342 72.8744 15.0701 72.4705 14.9571C72.0658 14.844 71.5769 14.7872 71.0028 14.7872H67.7036Z" fill="#333333"/>
<path fill-rule="evenodd" clip-rule="evenodd" d="M85.1443 9.83899C86.0739 9.83899 86.9169 9.98854 87.6729 10.2876C88.4293 10.5867 89.0739 11.0113 89.6075 11.5611C90.141 12.1112 90.5536 12.7819 90.8449 13.5743C91.1357 14.3668 91.2815 15.2525 91.2815 16.2306C91.2815 17.2169 91.1357 18.1063 90.8449 18.8988C90.5536 19.6913 90.141 20.3661 89.6075 20.9245C89.0739 21.4821 88.4293 21.9109 87.6729 22.21C86.9169 22.5091 86.0739 22.6586 85.1443 22.6586C84.2143 22.6586 83.3696 22.5091 82.6094 22.21C81.8493 21.9109 81.2005 21.4821 80.6628 20.9245C80.1247 20.3661 79.7084 19.6913 79.4138 18.8988C79.1185 18.1063 78.971 17.2169 78.971 16.2306C78.971 15.2525 79.1185 14.3668 79.4138 13.5743C79.7084 12.7819 80.1247 12.1112 80.6628 11.5611C81.2005 11.0113 81.8493 10.5867 82.6094 10.2876C83.3696 9.98854 84.2143 9.83899 85.1443 9.83899ZM85.1443 20.354C86.1795 20.354 86.9455 20.0065 87.4426 19.3109C87.9401 18.6158 88.1887 17.5971 88.1887 16.2545C88.1887 14.9128 87.9401 13.8895 87.4426 13.1861C86.9455 12.4827 86.1795 12.131 85.1443 12.131C84.0929 12.131 83.317 12.4848 82.8157 13.1923C82.3141 13.8999 82.0634 14.9206 82.0634 16.2545C82.0634 17.5889 82.3141 18.6059 82.8157 19.3051C83.317 20.0044 84.0929 20.354 85.1443 20.354Z" fill="#333333"/>
<path fill-rule="evenodd" clip-rule="evenodd" d="M98.9344 9.83899C99.864 9.83899 100.707 9.98854 101.463 10.2876C102.219 10.5867 102.864 11.0113 103.398 11.5611C103.931 12.1112 104.343 12.7819 104.635 13.5743C104.926 14.3668 105.071 15.2525 105.071 16.2306C105.071 17.2169 104.926 18.1063 104.635 18.8988C104.343 19.6913 103.931 20.3661 103.398 20.9245C102.864 21.4821 102.219 21.9109 101.463 22.21C100.707 22.5091 99.864 22.6586 98.9344 22.6586C98.0044 22.6586 97.1593 22.5091 96.3992 22.21C95.6394 21.9109 94.9903 21.4821 94.4526 20.9245C93.9149 20.3661 93.4985 19.6913 93.2036 18.8988C92.9082 18.1063 92.7607 17.2169 92.7607 16.2306C92.7607 15.2525 92.9082 14.3668 93.2036 13.5743C93.4985 12.7819 93.9149 12.1112 94.4526 11.5611C94.9903 11.0113 95.6394 10.5867 96.3992 10.2876C97.1593 9.98854 98.0044 9.83899 98.9344 9.83899ZM98.9344 20.354C99.9692 20.354 100.735 20.0065 101.233 19.3109C101.73 18.6158 101.978 17.5971 101.978 16.2545C101.978 14.9128 101.73 13.8895 101.233 13.1861C100.735 12.4827 99.9692 12.131 98.9344 12.131C97.883 12.131 97.1071 12.4848 96.6055 13.1923C96.1042 13.8999 95.8536 14.9206 95.8536 16.2545C95.8536 17.5889 96.1042 18.6059 96.6055 19.3051C97.1071 20.0044 97.883 20.354 98.9344 20.354Z" fill="#333333"/>
<path fill-rule="evenodd" clip-rule="evenodd" d="M107.291 22.4767V10.0329H109.122C109.51 10.0329 109.765 10.2147 109.886 10.5784L110.08 11.5006C110.299 11.2578 110.527 11.0354 110.766 10.8336C111.004 10.6315 111.259 10.4575 111.53 10.3121C111.8 10.1663 112.092 10.0511 112.403 9.96617C112.714 9.88124 113.056 9.83899 113.428 9.83899C114.212 9.83899 114.857 10.0511 115.363 10.4757C115.868 10.9003 116.246 11.4641 116.496 12.1675C116.69 11.7549 116.933 11.4016 117.224 11.1062C117.515 10.8113 117.835 10.5706 118.182 10.3846C118.53 10.199 118.9 10.0614 119.292 9.97197C119.684 9.88331 120.078 9.83899 120.475 9.83899C121.162 9.83899 121.772 9.9438 122.306 10.1542C122.84 10.3647 123.288 10.6716 123.652 11.076C124.016 11.4803 124.293 11.9737 124.483 12.5557C124.673 13.1377 124.768 13.8047 124.768 14.557V22.4767H121.772V14.557C121.772 13.7645 121.598 13.168 121.251 12.7678C120.903 12.3676 120.394 12.1675 119.723 12.1675C119.415 12.1675 119.13 12.2201 118.868 12.3254C118.605 12.4306 118.374 12.5822 118.176 12.7802C117.978 12.9782 117.823 13.2268 117.709 13.5259C117.596 13.825 117.54 14.1688 117.54 14.557V22.4767H114.532V14.557C114.532 13.7239 114.363 13.1178 114.028 12.7375C113.693 12.3577 113.197 12.1675 112.542 12.1675C112.114 12.1675 111.712 12.2748 111.336 12.489C110.96 12.7032 110.61 12.9965 110.287 13.3685V22.4767H107.291Z" fill="#333333"/>
<path fill-rule="evenodd" clip-rule="evenodd" d="M132.858 9.83899C133.642 9.83899 134.363 9.96409 135.022 10.2147C135.682 10.4653 136.25 10.8315 136.727 11.3125C137.204 11.7935 137.576 12.3838 137.842 13.083C138.109 13.7827 138.243 14.581 138.243 15.4787C138.243 15.7049 138.233 15.8929 138.212 16.0425C138.192 16.192 138.156 16.3093 138.103 16.3942C138.051 16.4791 137.98 16.5396 137.891 16.5761C137.802 16.6125 137.689 16.6307 137.552 16.6307H129.862C129.951 17.9083 130.294 18.8462 130.893 19.4444C131.491 20.043 132.283 20.3421 133.27 20.3421C133.755 20.3421 134.174 20.2857 134.525 20.1722C134.877 20.0591 135.184 19.934 135.447 19.7965C135.71 19.659 135.94 19.5339 136.138 19.4203C136.336 19.3073 136.528 19.2505 136.714 19.2505C136.836 19.2505 136.941 19.2749 137.03 19.3234C137.119 19.3719 137.196 19.4406 137.26 19.5297L138.134 20.6213C137.802 21.0094 137.43 21.3346 137.018 21.5977C136.605 21.8603 136.175 22.0704 135.726 22.2278C135.277 22.3856 134.82 22.497 134.356 22.5617C133.89 22.6263 133.44 22.6586 133.003 22.6586C132.138 22.6586 131.334 22.5148 130.59 22.2278C129.845 21.9411 129.199 21.5169 128.649 20.9543C128.099 20.3926 127.667 19.6975 127.351 18.8686C127.036 18.04 126.878 17.0794 126.878 15.9882C126.878 15.139 127.016 14.3407 127.291 13.5926C127.565 12.8448 127.959 12.1936 128.473 11.6398C128.986 11.0859 129.613 10.6476 130.353 10.3241C131.093 10.0005 131.928 9.83899 132.858 9.83899ZM132.918 11.9856C132.045 11.9856 131.362 12.2321 130.869 12.7254C130.375 13.2184 130.06 13.9181 129.923 14.8236H135.55C135.55 14.4355 135.498 14.0697 135.392 13.7259C135.288 13.3824 135.126 13.0813 134.907 12.8224C134.689 12.5635 134.414 12.3596 134.083 12.2097C133.751 12.0606 133.363 11.9856 132.918 11.9856Z" fill="#333333"/>
<path fill-rule="evenodd" clip-rule="evenodd" d="M140.68 22.4767V10.0328H142.439C142.746 10.0328 142.96 10.0896 143.081 10.2027C143.203 10.3162 143.284 10.51 143.324 10.7847L143.506 12.2889C143.951 11.5208 144.473 10.9144 145.071 10.4694C145.669 10.0249 146.34 9.80249 147.084 9.80249C147.698 9.80249 148.207 9.94375 148.612 10.2271L148.224 12.4707C148.2 12.6161 148.147 12.7193 148.066 12.7802C147.985 12.8407 147.876 12.8709 147.739 12.8709C147.618 12.8709 147.452 12.8427 147.241 12.786C147.031 12.7296 146.753 12.701 146.405 12.701C145.782 12.701 145.248 12.873 144.804 13.2168C144.359 13.5602 143.983 14.0635 143.676 14.7268V22.4767H140.68Z" fill="#333333"/>
<path fill-rule="evenodd" clip-rule="evenodd" d="M159.758 22.4767H158.412C158.129 22.4767 157.906 22.4341 157.745 22.3496C157.583 22.2646 157.462 22.0927 157.381 21.8338L157.114 20.9486C156.799 21.2315 156.489 21.48 156.186 21.6946C155.883 21.9088 155.569 22.0886 155.246 22.234C154.923 22.3798 154.579 22.4888 154.215 22.5617C153.852 22.6346 153.447 22.6706 153.003 22.6706C152.477 22.6706 151.991 22.5998 151.547 22.4581C151.102 22.316 150.72 22.1031 150.401 21.8193C150.082 21.5356 149.833 21.1822 149.655 20.7605C149.477 20.3383 149.388 19.8479 149.388 19.2878C149.388 18.8172 149.512 18.3528 149.758 17.8942C150.005 17.4361 150.415 17.0226 150.989 16.6535C151.563 16.284 152.327 15.9779 153.281 15.7347C154.235 15.4911 155.42 15.3693 156.835 15.3693V14.6361C156.835 13.7972 156.591 13.0259 156.239 12.6224C155.887 12.2193 155.44 12.047 154.773 11.9654C153.881 11.856 152.294 12.5031 152.028 12.5806C151.237 12.8101 150.909 12.7007 150.681 12.3436C150.326 11.7889 150.175 10.576 150.175 10.576C150.718 10.0784 152.432 9.69028 153.636 9.61571C155.605 9.49392 157.368 9.80088 158.545 11.1547C158.926 11.593 159.243 12.0868 159.449 12.6767C159.655 13.2674 159.758 13.914 159.758 14.6175V22.4767ZM153.936 20.6087C154.244 20.6087 154.527 20.581 154.785 20.5251C155.044 20.4696 155.289 20.3859 155.519 20.2744C155.749 20.163 155.972 20.0259 156.186 19.8627C156.4 19.6994 156.617 19.5064 156.835 19.2835V17.2006C155.962 17.2006 155.232 17.2557 154.646 17.3655C154.06 17.4757 153.589 17.6161 153.233 17.7872C152.877 17.9583 152.624 18.158 152.475 18.3854C152.325 18.6137 152.251 18.8618 152.251 19.1307C152.251 19.6601 152.406 20.0387 152.718 20.2666C153.029 20.4948 153.435 20.6087 153.936 20.6087Z" fill="#333333"/>
<path fill-rule="evenodd" clip-rule="evenodd" d="M162.705 22.4767V10.0329H164.537C164.924 10.0329 165.18 10.2147 165.301 10.5784L165.507 11.5611C165.757 11.3026 166.022 11.0681 166.301 10.8576C166.58 10.6476 166.876 10.4653 167.187 10.3121C167.498 10.1584 167.831 10.0411 168.188 9.95995C168.543 9.87917 168.931 9.83899 169.352 9.83899C170.031 9.83899 170.633 9.95415 171.159 10.1845C171.684 10.4148 172.123 10.7383 172.475 11.1547C172.826 11.5714 173.093 12.0685 173.275 12.6468C173.457 13.2247 173.548 13.8614 173.548 14.557V22.4767H170.553V14.557C170.553 13.7968 170.376 13.2086 170.025 12.7922C169.673 12.3759 169.145 12.1675 168.442 12.1675C167.924 12.1675 167.439 12.2848 166.987 12.5192C166.534 12.7537 166.105 13.0731 165.701 13.4774V22.4767H162.705Z" fill="#333333"/>
<path fill-rule="evenodd" clip-rule="evenodd" d="M181.318 9.81458C181.915 9.81458 182.475 9.87547 183 9.99768C183.524 10.1199 184.003 10.2984 184.437 10.5333H188.438V11.7811C188.438 11.989 188.384 12.1518 188.275 12.2691C188.167 12.3867 187.981 12.4683 187.719 12.5135L186.472 12.7438C186.562 12.9791 186.632 13.2276 186.682 13.4899C186.731 13.7521 186.756 14.0276 186.756 14.3171C186.756 15.0044 186.619 15.6258 186.343 16.1817C186.067 16.7376 185.687 17.2103 185.204 17.5989C184.72 17.9879 184.146 18.2886 183.481 18.5007C182.817 18.7132 182.096 18.8197 181.318 18.8197C180.794 18.8197 180.283 18.77 179.785 18.6702C179.352 18.9345 179.135 19.2306 179.135 19.5579C179.135 19.8404 179.264 20.048 179.521 20.1797C179.779 20.3119 180.118 20.4051 180.538 20.4597C180.959 20.5144 181.435 20.5418 181.969 20.5418C182.502 20.5418 183.049 20.5641 183.61 20.6097C184.17 20.6549 184.717 20.7344 185.251 20.8479C185.784 20.9614 186.261 21.1404 186.682 21.3852C187.102 21.6304 187.441 21.9639 187.699 22.3856C187.957 22.8073 188.086 23.3492 188.086 24.0112C188.086 24.628 187.934 25.2266 187.631 25.8074C187.328 26.3878 186.89 26.9048 186.315 27.3584C185.741 27.8116 185.039 28.1765 184.207 28.4537C183.375 28.7304 182.426 28.8688 181.359 28.8688C180.301 28.8688 179.383 28.7668 178.606 28.5634C177.828 28.36 177.184 28.0887 176.673 27.7498C176.162 27.4106 175.78 27.0195 175.527 26.5767C175.274 26.1334 175.147 25.6723 175.147 25.1935C175.147 24.5423 175.346 23.9954 175.744 23.5522C176.142 23.1098 176.693 22.7572 177.399 22.4946C177.055 22.3048 176.78 22.0517 176.572 21.7352C176.363 21.4188 176.26 21.0078 176.26 20.5012C176.26 20.2932 176.296 20.0786 176.368 19.857C176.44 19.6354 176.551 19.4162 176.701 19.1992C176.85 18.9821 177.037 18.7766 177.263 18.5823C177.489 18.3876 177.756 18.2136 178.063 18.06C177.358 17.6805 176.804 17.1739 176.402 16.5413C176 15.9083 175.799 15.1668 175.799 14.3171C175.799 13.6299 175.936 13.0085 176.212 12.4526C176.488 11.8962 176.872 11.4215 177.365 11.0283C177.858 10.6352 178.441 10.3345 179.114 10.1265C179.788 9.91855 180.522 9.81458 181.318 9.81458ZM185.197 24.5008C185.197 24.2154 185.113 23.983 184.946 23.8024C184.792 23.6367 184.587 23.505 184.332 23.4072C184.309 23.3985 184.286 23.3902 184.262 23.3819C183.973 23.2821 183.636 23.2084 183.249 23.1607C182.863 23.1135 182.454 23.0895 182.021 23.0895C181.589 23.0895 181.142 23.0895 180.681 23.0895C180.22 23.0895 179.644 23.1102 179.216 23.0074C178.825 23.2216 178.643 23.4039 178.406 23.6968C178.169 23.9901 178.05 24.3273 178.05 24.7092C178.05 24.9598 178.113 25.1951 178.238 25.4139C178.364 25.6322 178.564 25.8211 178.838 25.9793C179.113 26.1376 179.469 26.2606 179.906 26.3493C180.343 26.4375 180.879 26.4818 181.512 26.4818C182.154 26.4818 182.708 26.4317 183.173 26.3323C183.638 26.232 184.022 26.0945 184.324 25.9188C184.627 25.7432 184.848 25.5336 184.988 25.2917C185.127 25.0493 185.197 24.7854 185.197 24.5008ZM181.318 16.6767C181.734 16.6767 182.096 16.6204 182.403 16.5073C182.71 16.3942 182.966 16.2384 183.169 16.0392C183.373 15.8403 183.526 15.6009 183.631 15.3204C183.734 15.0404 183.786 14.733 183.786 14.3983C183.786 13.7114 183.58 13.1667 183.169 12.764C182.758 12.3622 182.141 12.1609 181.318 12.1609C180.495 12.1609 179.878 12.3622 179.467 12.764C179.056 13.1667 178.85 13.7114 178.85 14.3983C178.85 14.7239 178.902 15.0271 179.006 15.3072C179.11 15.5872 179.264 15.8291 179.467 16.0325C179.67 16.2359 179.928 16.3942 180.24 16.5073C180.552 16.6204 180.911 16.6767 181.318 16.6767Z" fill="#333333"/>
<path fill-rule="evenodd" clip-rule="evenodd" d="M9.11475 17.3416C7.29036 18.6689 2.38473 22.3636 0.917427 24.0588C-0.559401 25.7647 -0.00760977 27.0423 0.859845 27.534C1.38927 27.8343 2.13327 27.7225 2.90255 27.5837C4.47134 27.3003 6.58115 26.512 8.98136 25.4511C9.13132 25.3852 9.27838 25.3086 9.43414 25.2494C9.54848 25.2063 9.6131 25.1089 9.6131 24.9341C9.6131 23.7468 9.61973 17.7629 9.61973 17.5293C9.61973 17.3159 9.39976 17.1345 9.11475 17.3416Z" fill="#41A057"/>
<path fill-rule="evenodd" clip-rule="evenodd" d="M30.0845 5.51124C29.942 5.57006 29.7978 5.62972 29.6516 5.69144C27.2758 6.69063 24.4468 8.07218 21.4986 9.66831C21.359 9.7437 21.2194 9.82034 21.0789 9.89615C20.9795 9.95001 20.8946 10.0469 20.8946 10.2023C20.8946 11.5416 20.8946 18.9879 20.8946 19.0765C20.8946 19.3611 21.1088 19.4908 21.3615 19.3744C21.4729 19.3226 21.511 19.306 21.6204 19.2513C24.5736 17.772 27.4171 16.3942 29.8475 15.4012C30.0103 15.3345 30.1731 15.274 30.3305 15.2069C30.4233 15.1667 30.519 15.1021 30.519 14.8627C30.519 13.3448 30.519 5.93461 30.519 5.74902C30.519 5.54189 30.2937 5.42549 30.0845 5.51124Z" fill="#F9BF41"/>
<path fill-rule="evenodd" clip-rule="evenodd" d="M10.8484 24.6013C13.684 23.2753 16.8092 21.6779 19.8879 20.1232C19.9472 20.093 20.0661 20.0147 20.0661 19.827C20.0661 18.5018 20.0661 11.2279 20.0661 10.9532C20.0661 10.6508 19.7517 10.6077 19.5922 10.7208C16.5184 12.4516 13.4508 14.3402 10.6488 16.2673C10.6003 16.3004 10.4412 16.3771 10.4412 16.5908C10.4412 17.7648 10.4412 24.0773 10.4412 24.3064C10.4412 24.6299 10.7121 24.6651 10.8484 24.6013Z" fill="#055DA0"/>
<path fill-rule="evenodd" clip-rule="evenodd" d="M40.8117 6.19764C38.9401 4.86994 37.0287 4 35.2693 4C34.5398 4 33.4002 4.28377 31.9768 4.78543C31.8438 4.83224 31.7088 4.88154 31.5704 4.93166C31.459 4.97226 31.3488 5.04973 31.3476 5.2378C31.338 6.64959 31.3476 14.2723 31.3476 14.3838C31.3476 14.5586 31.4979 14.7719 31.7825 14.6622C32.1148 14.5337 32.4018 14.4559 32.7134 14.3614C33.7631 14.0437 34.6658 13.8622 35.3737 13.8622C36.8738 13.8622 38.6509 14.9012 40.5155 16.2098C40.6671 16.3159 40.972 16.274 40.972 15.9861C40.972 13.9119 40.972 6.65042 40.972 6.50004C40.972 6.32523 40.8651 6.23575 40.8117 6.19764Z" fill="#E1563D"/>
<path fill-rule="evenodd" clip-rule="evenodd" d="M41.8009 7.57417C41.8009 7.65081 41.8009 15.5615 41.8009 16.9339C41.8009 17.0644 41.8589 17.1762 41.977 17.2653C42.1265 17.3788 42.2798 17.4886 42.4314 17.6004C45.028 19.516 47.6684 21.4497 49.8719 21.4497C50.3756 21.4497 51.4253 20.9663 51.3905 19.6199C51.3905 18.0686 47.3507 11.7383 42.6215 7.62844C42.5018 7.52446 42.3883 7.41385 42.2616 7.32106C42.042 7.15991 41.8001 7.33017 41.8009 7.57417Z" fill="#055DA0"/>
<path fill-rule="evenodd" clip-rule="evenodd" d="M196.521 22.0463V11.527L194.868 11.4206C194.639 11.4052 194.526 11.3071 194.526 11.1256V10.6654H196.521V9.17778C196.521 8.50876 196.607 7.92051 196.781 7.41222C196.954 6.90517 197.198 6.4818 197.512 6.14335C197.827 5.8049 198.207 5.55137 198.652 5.38194C199.096 5.21251 199.586 5.12842 200.122 5.12842C200.366 5.12842 200.612 5.14955 200.86 5.19304C201.108 5.23612 201.326 5.29744 201.515 5.37573L201.479 5.91882C201.471 6.02943 201.397 6.08411 201.255 6.08411C201.161 6.08411 201.032 6.07251 200.872 6.0489C200.71 6.0257 200.512 6.01327 200.275 6.01327C199.889 6.01327 199.533 6.07085 199.207 6.18477C198.88 6.29911 198.599 6.4818 198.362 6.73325C198.127 6.98553 197.943 7.31445 197.814 7.71918C197.683 8.12516 197.619 8.62268 197.619 9.213V10.6654H201.432V11.5034H197.642V22.0463H196.521Z" fill="#212221"/>
<path fill-rule="evenodd" clip-rule="evenodd" d="M208.044 10.1104C208.885 10.1104 209.639 10.2541 210.304 10.5412C210.97 10.8287 211.53 11.2359 211.987 11.7632C212.443 12.2906 212.791 12.9261 213.032 13.6701C213.272 14.4141 213.392 15.2459 213.392 16.1668C213.392 17.0881 213.272 17.9183 213.032 18.6581C212.791 19.398 212.443 20.0318 211.987 20.5592C211.53 21.0865 210.97 21.4912 210.304 21.775C209.639 22.0584 208.885 22.1996 208.044 22.1996C207.201 22.1996 206.448 22.0584 205.783 21.775C205.117 21.4912 204.555 21.0865 204.094 20.5592C203.634 20.0318 203.283 19.398 203.044 18.6581C202.803 17.9183 202.684 17.0881 202.684 16.1668C202.684 15.2459 202.803 14.4141 203.044 13.6701C203.283 12.9261 203.634 12.2906 204.094 11.7632C204.555 11.2359 205.117 10.8287 205.783 10.5412C206.448 10.2541 207.201 10.1104 208.044 10.1104ZM208.044 21.3147C208.744 21.3147 209.356 21.1946 209.88 20.9543C210.403 20.7145 210.839 20.3698 211.19 19.9212C211.54 19.4725 211.802 18.9315 211.975 18.2981C212.148 17.6643 212.235 16.9538 212.235 16.1667C212.235 15.3875 212.148 14.6791 211.975 14.0416C211.802 13.4041 211.54 12.8593 211.19 12.4065C210.839 11.9542 210.403 11.6058 209.88 11.3614C209.356 11.1178 208.744 10.996 208.044 10.996C207.343 10.996 206.731 11.1178 206.207 11.3614C205.684 11.6058 205.247 11.9542 204.897 12.4065C204.547 12.8593 204.283 13.4041 204.106 14.0416C203.929 14.6791 203.841 15.3875 203.841 16.1667C203.841 16.9538 203.929 17.6643 204.106 18.2981C204.283 18.9315 204.547 19.4725 204.897 19.9212C205.247 20.3698 205.684 20.7145 206.207 20.9543C206.731 21.1946 207.343 21.3147 208.044 21.3147Z" fill="#212221"/>
<path fill-rule="evenodd" clip-rule="evenodd" d="M216.225 22.0464V10.2993H216.815C216.949 10.2993 217.045 10.3266 217.104 10.3817C217.163 10.4372 217.197 10.5317 217.204 10.6655L217.299 13.1444C217.677 12.192 218.18 11.4463 218.81 10.9074C219.44 10.368 220.215 10.0988 221.136 10.0988C221.49 10.0988 221.817 10.1356 222.116 10.2106C222.415 10.2856 222.698 10.3933 222.966 10.5354L222.812 11.3146C222.789 11.4405 222.71 11.5035 222.577 11.5035C222.529 11.5035 222.463 11.4878 222.376 11.4563C222.289 11.4248 222.181 11.3896 222.051 11.3498C221.921 11.3105 221.762 11.2752 221.573 11.2438C221.384 11.2123 221.168 11.1965 220.924 11.1965C220.034 11.1965 219.304 11.472 218.734 12.023C218.163 12.5739 217.701 13.3689 217.346 14.4079V22.0464H216.225Z" fill="#212221"/>
<path fill-rule="evenodd" clip-rule="evenodd" d="M237.665 21.2555C238.239 21.2555 238.763 21.226 239.235 21.1668C239.707 21.108 240.146 21.0193 240.552 20.9013C240.957 20.7832 241.342 20.6399 241.709 20.4704C242.075 20.301 242.442 20.11 242.813 19.8979V15.3991H239.601C239.514 15.3991 239.442 15.3718 239.383 15.3167C239.324 15.2616 239.294 15.1986 239.294 15.1278V14.4666H243.91V20.405C243.493 20.6962 243.06 20.9559 242.612 21.1846C242.163 21.4129 241.683 21.6038 241.171 21.7571C240.66 21.9104 240.109 22.0285 239.518 22.1117C238.928 22.1942 238.283 22.2352 237.582 22.2352C236.378 22.2352 235.278 22.0326 234.282 21.6275C233.287 21.2219 232.433 20.6473 231.72 19.9033C231.008 19.1601 230.455 18.2608 230.062 17.2061C229.668 16.1514 229.471 14.9786 229.471 13.6878C229.471 12.3966 229.668 11.2259 230.062 10.1749C230.455 9.12434 231.014 8.22706 231.738 7.48347C232.462 6.73946 233.341 6.16488 234.377 5.75933C235.412 5.35418 236.571 5.15161 237.854 5.15161C238.491 5.15161 239.08 5.19511 239.619 5.28127C240.158 5.36827 240.66 5.49586 241.124 5.66488C241.589 5.83472 242.021 6.04268 242.423 6.29082C242.824 6.53896 243.21 6.82397 243.58 7.14709L243.261 7.66615C243.19 7.78463 243.092 7.84346 242.966 7.84346C242.895 7.84346 242.828 7.82771 242.765 7.79623C242.647 7.74901 242.476 7.63881 242.251 7.46565C242.027 7.29249 241.724 7.11146 241.342 6.92256C240.961 6.73325 240.482 6.56423 239.908 6.41468C239.333 6.26555 238.637 6.19057 237.818 6.19057C236.732 6.19057 235.752 6.36373 234.878 6.71005C234.005 7.05637 233.259 7.55223 232.641 8.19765C232.023 8.84264 231.547 9.63015 231.213 10.5589C230.878 11.4877 230.711 12.5308 230.711 13.6878C230.711 14.868 230.88 15.9269 231.218 16.8635C231.557 17.8001 232.031 18.593 232.641 19.2426C233.251 19.8917 233.983 20.3897 234.837 20.736C235.691 21.0823 236.634 21.2555 237.665 21.2555Z" fill="#212221"/>
<path fill-rule="evenodd" clip-rule="evenodd" d="M247.476 22.0463V10.2993H248.089C248.294 10.2993 248.412 10.3974 248.444 10.5946L248.55 12.2943C248.778 11.9716 249.022 11.6767 249.282 11.409C249.542 11.1414 249.819 10.9111 250.114 10.7185C250.41 10.5254 250.724 10.3763 251.059 10.2698C251.394 10.1634 251.745 10.1104 252.116 10.1104C252.974 10.1104 253.658 10.3601 254.17 10.8597C254.682 11.3598 255.028 12.0545 255.209 12.9439C255.35 12.4559 255.549 12.0346 255.804 11.6804C256.059 11.3262 256.352 11.0329 256.682 10.8009C257.012 10.5689 257.372 10.3954 257.761 10.2814C258.15 10.1675 258.549 10.1104 258.957 10.1104C259.539 10.1104 260.061 10.2065 260.525 10.3995C260.989 10.5925 261.384 10.8776 261.71 11.2554C262.036 11.6336 262.285 12.098 262.458 12.6489C262.631 13.1999 262.717 13.8291 262.717 14.5375V22.0463H261.596V14.5375C261.596 13.3888 261.348 12.513 260.852 11.9107C260.356 11.3084 259.648 11.0076 258.727 11.0076C258.318 11.0076 257.926 11.0826 257.552 11.2317C257.178 11.3813 256.848 11.6037 256.561 11.8987C256.273 12.1941 256.045 12.5623 255.876 13.0027C255.707 13.4439 255.622 13.9551 255.622 14.5375V22.0463H254.501V14.5375C254.501 13.3962 254.272 12.523 253.816 11.9165C253.359 11.3105 252.694 11.0076 251.821 11.0076C251.183 11.0076 250.592 11.1986 250.049 11.5801C249.506 11.9621 249.022 12.4915 248.597 13.1684V22.0463H247.476Z" fill="#212221"/>
<path fill-rule="evenodd" clip-rule="evenodd" d="M273.638 22.0464C273.402 22.0464 273.256 21.9366 273.201 21.7158L273.036 20.2162C272.713 20.5314 272.393 20.8148 272.074 21.0666C271.755 21.3189 271.423 21.531 271.076 21.7042C270.729 21.8773 270.356 22.0095 269.954 22.0994C269.553 22.1901 269.112 22.2353 268.632 22.2353C268.231 22.2353 267.841 22.1764 267.463 22.0584C267.086 21.9403 266.751 21.7593 266.46 21.5153C266.169 21.2713 265.934 20.9585 265.758 20.577C265.581 20.195 265.492 19.7365 265.492 19.2012C265.492 18.7054 265.634 18.2451 265.917 17.8197C266.2 17.3951 266.643 17.0247 267.245 16.7103C267.847 16.3955 268.623 16.1432 269.571 15.9543C270.519 15.7654 271.659 15.6556 272.989 15.6237V14.3963C272.989 13.3101 272.754 12.4737 272.286 11.8871C271.818 11.3009 271.123 11.0076 270.203 11.0076C269.636 11.0076 269.154 11.0863 268.756 11.2438C268.359 11.4012 268.022 11.5743 267.747 11.7632C267.471 11.9521 267.247 12.1253 267.074 12.2827C266.9 12.4401 266.755 12.5188 266.637 12.5188C266.48 12.5188 266.362 12.4476 266.283 12.3063L266.082 11.9637C266.696 11.3498 267.342 10.8858 268.018 10.5706C268.695 10.2558 269.463 10.0988 270.321 10.0988C270.95 10.0988 271.501 10.199 271.973 10.3995C272.446 10.6 272.837 10.8879 273.148 11.2612C273.459 11.6352 273.693 12.0876 273.851 12.6195C274.008 13.1506 274.087 13.7426 274.087 14.3963V22.0464H273.638ZM268.916 21.4207C269.372 21.4207 269.791 21.3714 270.173 21.2729C270.555 21.1747 270.909 21.0371 271.236 20.8598C271.562 20.6825 271.867 20.4725 272.15 20.2285C272.434 19.9845 272.713 19.7206 272.989 19.4373V16.3796C271.871 16.4111 270.909 16.4956 270.102 16.6332C269.295 16.7711 268.63 16.958 268.107 17.1937C267.584 17.4302 267.198 17.7115 266.95 18.0383C266.702 18.3652 266.578 18.7368 266.578 19.1539C266.578 19.5475 266.643 19.8876 266.773 20.1751C266.903 20.4626 267.074 20.6983 267.287 20.8835C267.499 21.0686 267.747 21.2041 268.03 21.2907C268.314 21.3777 268.608 21.4207 268.916 21.4207Z" fill="#212221"/>
<path fill-rule="evenodd" clip-rule="evenodd" d="M279.459 6.24987C279.459 6.39113 279.429 6.52328 279.37 6.64549C279.311 6.76728 279.235 6.87499 279.14 6.96985C279.046 7.0643 278.935 7.13887 278.809 7.19396C278.684 7.24947 278.549 7.27682 278.408 7.27682C278.266 7.27682 278.133 7.24947 278.007 7.19396C277.88 7.13887 277.771 7.0643 277.676 6.96985C277.581 6.87499 277.507 6.76728 277.452 6.64549C277.397 6.52328 277.369 6.39113 277.369 6.24987C277.369 6.1082 277.397 5.97232 277.452 5.84224C277.507 5.71258 277.581 5.5999 277.676 5.50587C277.771 5.41141 277.88 5.33643 278.007 5.28134C278.133 5.22666 278.266 5.19849 278.408 5.19849C278.549 5.19849 278.684 5.22666 278.809 5.28134C278.935 5.33643 279.046 5.41141 279.14 5.50587C279.235 5.5999 279.311 5.71258 279.37 5.84224C279.429 5.97232 279.459 6.1082 279.459 6.24987ZM277.841 10.2993H278.962V22.0468H277.841V10.2993Z" fill="#212221"/>
<path fill-rule="evenodd" clip-rule="evenodd" d="M283.331 4.86865H284.452V22.0467H283.331V4.86865Z" fill="#212221"/>
</svg>
